<?xml version="1.0" standalone="no"?>
<!DOCTYPE svg PUBLIC "-//W3C//DTD SVG 20010904//EN"
 "http://www.w3.org/TR/2001/REC-SVG-20010904/DTD/svg10.dtd">
<svg version="1.0" xmlns="http://www.w3.org/2000/svg"
 width="632.000000pt" height="240.000000pt" viewBox="0 0 632.000000 240.000000"
 preserveAspectRatio="xMidYMid meet">

<g transform="translate(0.000000,240.000000) scale(0.100000,-0.100000)"
fill="#000000" stroke="none">
<path d="M90 878 c1 -370 4 -403 47 -450 24 -28 91 -58 129 -58 17 0 53 11 80
25 47 24 52 24 140 14 163 -18 349 20 484 98 36 21 99 72 141 113 133 133 196
298 186 492 -3 53 -8 102 -12 107 -4 7 -69 11 -182 11 -163 0 -175 -1 -168
-17 15 -40 22 -121 15 -171 -20 -124 -102 -233 -206 -271 -68 -26 -181 -28
-253 -4 l-51 16 0 224 0 223 -175 0 -175 0 0 -352z"/>
<path d="M1440 876 c0 -244 4 -364 12 -387 50 -145 220 -170 312 -46 20 28 21
41 24 408 l3 379 -176 0 -175 0 0 -354z"/>
<path d="M2600 1163 c0 -164 52 -373 121 -490 46 -77 155 -191 223 -232 104
-63 179 -84 291 -84 121 -1 184 19 279 87 103 73 186 208 186 301 0 184 -226
239 -326 80 -18 -27 -45 -65 -62 -82 -27 -29 -36 -33 -84 -33 -92 0 -168 63
-224 185 -14 30 -28 70 -31 89 l-5 34 103 -5 c188 -9 342 44 462 158 l62 58
-497 1 -498 0 0 -67z"/>
<path d="M3820 1163 c0 -164 52 -373 121 -490 46 -77 155 -191 223 -232 104
-63 179 -84 291 -84 121 -1 184 19 279 87 103 73 186 208 186 301 0 184 -226
239 -326 80 -18 -27 -45 -65 -62 -82 -27 -29 -36 -33 -84 -33 -92 0 -168 63
-224 185 -14 30 -28 70 -31 89 l-5 34 103 -5 c188 -9 342 44 462 158 l62 58
-497 1 -498 0 0 -67z"/>
<path d="M5260 1218 c-101 -14 -138 -26 -175 -59 -60 -53 -69 -132 -24 -206
35 -57 74 -73 178 -73 l91 0 0 -47 c1 -81 38 -339 53 -369 64 -123 245 -124
306 -1 l24 49 -17 166 c-9 92 -19 179 -21 193 -6 36 7 39 205 39 139 0 171 3
206 19 115 52 132 192 33 275 l-31 26 -381 -1 c-210 -1 -411 -6 -447 -11z"/>
</g>
</svg>
